<svg xmlns="http://www.w3.org/2000/svg" width="126.818" height="20.928" viewBox="0 0 126.818 20.928"><g id="Grupo_6718" data-name="Grupo 6718" transform="translate(-0.15 -0.095)"><path id="Caminho_15" data-name="Caminho 15" d="M8.264,8.824c-2.415-.818-4.5-1.523-4.5-3.446,0-1.778,1.411-2.8,3.87-2.8a5.4,5.4,0,0,1,4.442,2.148,1.284,1.284,0,0,0,2.314-.765,1.294,1.294,0,0,0-.234-.741A7.622,7.622,0,0,0,7.634.095c-3.022,0-6.552,1.384-6.552,5.283,0,3.875,3.311,4.939,6.234,5.878,2.559.823,4.771,1.534,4.771,3.819s-1.566,3.461-4.656,3.461A5.482,5.482,0,0,1,2.55,15.963a1.278,1.278,0,0,0-1.116-.63A1.264,1.264,0,0,0,.15,16.6a1.354,1.354,0,0,0,.186.681,7.852,7.852,0,0,0,7.095,3.737c4.663,0,7.338-2.168,7.338-5.947,0-4.05-3.455-5.22-6.5-6.251M30.01.268A1.321,1.321,0,0,0,28.668,1.6V14.353c0,1.771-.464,4.125-4.481,4.125-3.119,0-4.51-1.272-4.51-4.125V1.6a1.342,1.342,0,0,0-2.683,0V14.353c0,4.363,2.487,6.669,7.193,6.669,4.686,0,7.163-2.306,7.163-6.669V1.6A1.321,1.321,0,0,0,30.01.268m49.241,10.3c0,5.284-2.252,7.963-6.694,7.963s-6.694-2.679-6.694-7.963c0-5.3,2.252-7.992,6.693-7.992s6.695,2.69,6.695,7.992M72.557.095c-6.084,0-9.435,3.721-9.435,10.478,0,6.738,3.351,10.449,9.435,10.449s9.435-3.711,9.435-10.449C81.992,3.816,78.641.1,72.557.1m19.1,9.639H87.148V2.985H91.57A3.2,3.2,0,0,1,94.8,6.36a3.193,3.193,0,0,1-3.142,3.375m5.9,8.969-4.818-6.567a5.553,5.553,0,0,0,4.772-5.778A5.757,5.757,0,0,0,91.6.5H85.806a1.321,1.321,0,0,0-1.341,1.329V19.519a1.342,1.342,0,0,0,2.683,0v-7.3h2.408l5.8,8.012a1.338,1.338,0,0,0,1.137.616,1.321,1.321,0,0,0,1.341-1.329,1.287,1.287,0,0,0-.275-.815M111.666.5H99.294a1.272,1.272,0,1,0,0,2.544h4.859V19.519a1.342,1.342,0,0,0,2.683,0V3.043h4.829a1.272,1.272,0,1,0,0-2.543m14.047,17.632h-8.323v-6.4h6.053a1.243,1.243,0,1,0,0-2.485h-6.053V2.984h8a1.243,1.243,0,1,0,0-2.485h-9.345a1.32,1.32,0,0,0-1.341,1.329v17.46a1.321,1.321,0,0,0,1.341,1.329h9.664a1.243,1.243,0,1,0,0-2.485" transform="translate(0 0)" fill="#fff" fill-rule="evenodd"></path><path id="Caminho_16" data-name="Caminho 16" d="M72.605.668H57.1V3.153H72.313A3.148,3.148,0,0,1,75.8,6.643a3.19,3.19,0,0,1-3.491,3.519H66.7a1.223,1.223,0,0,0-1.226,1.217v8.415a1.38,1.38,0,0,0,1.3,1.4h.043a1.342,1.342,0,0,0,.936-.373,1.316,1.316,0,0,0,.4-.957V12.648H72.6c3.647,0,5.912-2.3,5.912-6C78.515,2.958,76.25.668,72.6.668" transform="translate(-16.742 -0.168)" fill="#f46f02" fill-rule="evenodd"></path><path id="Caminho_17" data-name="Caminho 17" d="M58.245.652h7.9l-.306,2.364H59.484Z" transform="translate(-17.078 -0.164)" fill="#f46f02" fill-rule="evenodd"></path><path id="Caminho_18" data-name="Caminho 18" d="M55.61.64H49.816a1.337,1.337,0,0,0-1.341,1.329,1.163,1.163,0,0,0,1.167,1.156h5.677a3.148,3.148,0,0,1,3.491,3.49,3.191,3.191,0,0,1-3.491,3.519H49.7a1.224,1.224,0,0,0-1.229,1.217v8.415a1.38,1.38,0,0,0,1.3,1.4h.044a.625.625,0,0,0,.066,0,1.334,1.334,0,0,0,.868-.369,1.308,1.308,0,0,0,.405-.956V12.621H55.61c3.647,0,5.912-2.3,5.912-6C61.521,2.93,59.256.64,55.61.64" transform="translate(-14.206 -0.16)" fill="#f46f02" fill-rule="evenodd"></path></g></svg>